# Blender v2.78 (sub 0) OBJ File: ''
# www.blender.org
mtllib 3.mtl
o g_Podium_Podium_1012
v 1.500000 0.000000 0.000000
v 1.471200 0.000000 -0.292600
v 1.385800 0.000000 -0.574000
v 1.247200 0.000000 -0.833400
v 1.060700 0.000000 -1.060700
v 0.833400 0.000000 -1.247200
v 0.574000 0.000000 -1.385800
v 0.292600 0.000000 -1.471200
v 0.000000 0.000000 -1.500000
v -0.292600 0.000000 -1.471200
v -0.574000 0.000000 -1.385800
v -0.833400 0.000000 -1.247200
v -1.060700 0.000000 -1.060700
v -1.247200 0.000000 -0.833400
v -1.385800 0.000000 -0.574000
v -1.471200 0.000000 -0.292600
v -1.500000 0.000000 0.000000
v -1.471200 -0.000000 0.292600
v -1.385800 -0.000000 0.574000
v -1.247200 -0.000000 0.833400
v -1.060700 -0.000000 1.060700
v -0.833400 -0.000000 1.247200
v -0.574000 -0.000000 1.385800
v -0.292600 -0.000000 1.471200
v 0.000000 -0.000000 1.500000
v 0.292600 -0.000000 1.471200
v 0.574000 -0.000000 1.385800
v 0.833400 -0.000000 1.247200
v 1.060700 -0.000000 1.060700
v 1.247200 -0.000000 0.833400
v 1.385800 -0.000000 0.574000
v 1.471200 -0.000000 0.292600
v 1.600000 -0.178600 -0.000000
v 1.569300 -0.178600 0.312100
v 1.478200 -0.178600 0.612300
v 1.330400 -0.178600 0.888900
v 1.131400 -0.178600 1.131400
v 0.888900 -0.178600 1.330400
v 0.612300 -0.178600 1.478200
v 0.312100 -0.178600 1.569300
v 0.000000 -0.178600 1.600000
v -0.312100 -0.178600 1.569300
v -0.612300 -0.178600 1.478200
v -0.888900 -0.178600 1.330400
v -1.131400 -0.178600 1.131400
v -1.330400 -0.178600 0.888900
v -1.478200 -0.178600 0.612300
v -1.569300 -0.178600 0.312100
v -1.600000 -0.178600 -0.000000
v -1.569300 -0.178600 -0.312100
v -1.478200 -0.178600 -0.612300
v -1.330400 -0.178600 -0.888900
v -1.131400 -0.178600 -1.131400
v -0.888900 -0.178600 -1.330400
v -0.612300 -0.178600 -1.478200
v -0.312100 -0.178600 -1.569300
v 0.000000 -0.178600 -1.600000
v 0.312100 -0.178600 -1.569300
v 0.612300 -0.178600 -1.478200
v 0.888900 -0.178600 -1.330400
v 1.131400 -0.178600 -1.131400
v 1.330400 -0.178600 -0.888900
v 1.478200 -0.178600 -0.612300
v 1.569300 -0.178600 -0.312100
vt 0.9213 0.5815
vt 0.8967 0.6626
vt 0.8567 0.7374
vt 0.8029 0.8029
vt 0.7374 0.8567
vt 0.6626 0.8967
vt 0.5815 0.9213
vt 0.4971 0.9296
vt 0.4127 0.9213
vt 0.3316 0.8967
vt 0.2568 0.8567
vt 0.1912 0.8029
vt 0.1374 0.7374
vt 0.0974 0.6626
vt 0.0728 0.5815
vt 0.0645 0.4971
vt 0.0728 0.4127
vt 0.0974 0.3316
vt 0.1374 0.2568
vt 0.1912 0.1912
vt 0.2568 0.1374
vt 0.3315 0.0974
vt 0.4127 0.0728
vt 0.4971 0.0645
vt 0.5815 0.0728
vt 0.6626 0.0974
vt 0.7374 0.1374
vt 0.8029 0.1912
vt 0.8567 0.2568
vt 0.8967 0.3315
vt 0.9213 0.4127
vt 0.9296 0.4971
vt 0.9789 0.5929
vt 0.9884 0.4971
vt 0.9789 0.4012
vt 0.9510 0.3091
vt 0.9056 0.2241
vt 0.8445 0.1497
vt 0.7700 0.0886
vt 0.6851 0.0432
vt 0.5929 0.0152
vt 0.4971 0.0058
vt 0.4012 0.0152
vt 0.3091 0.0432
vt 0.2241 0.0886
vt 0.1497 0.1497
vt 0.0886 0.2241
vt 0.0432 0.3091
vt 0.0152 0.4012
vt 0.0058 0.4971
vt 0.0152 0.5929
vt 0.0432 0.6851
vt 0.0886 0.7700
vt 0.1497 0.8445
vt 0.2241 0.9056
vt 0.3091 0.9510
vt 0.4012 0.9789
vt 0.4971 0.9884
vt 0.5929 0.9789
vt 0.6851 0.9510
vt 0.7700 0.9056
vt 0.8445 0.8445
vt 0.9056 0.7700
vt 0.9510 0.6851
vn 0.5285 0.8490 0.0000
vn 0.5183 0.8490 -0.1031
vn 0.4882 0.8490 -0.2022
vn 0.4394 0.8490 -0.2936
vn 0.3737 0.8489 -0.3737
vn 0.2935 0.8490 -0.4394
vn 0.2022 0.8490 -0.4882
vn 0.1031 0.8490 -0.5183
vn 0.0000 0.8490 -0.5285
vn -0.1031 0.8490 -0.5183
vn -0.2022 0.8490 -0.4882
vn -0.2936 0.8490 -0.4394
vn -0.3737 0.8489 -0.3737
vn -0.4394 0.8490 -0.2935
vn -0.4882 0.8490 -0.2022
vn -0.5183 0.8490 -0.1031
vn -0.5285 0.8490 -0.0000
vn -0.5183 0.8490 0.1031
vn -0.4882 0.8490 0.2022
vn -0.4394 0.8490 0.2936
vn -0.3737 0.8489 0.3737
vn -0.2935 0.8490 0.4394
vn -0.2022 0.8490 0.4882
vn -0.1031 0.8490 0.5183
vn -0.0000 0.8490 0.5285
vn 0.1031 0.8490 0.5183
vn 0.2022 0.8490 0.4882
vn 0.2936 0.8490 0.4394
vn 0.3737 0.8489 0.3737
vn 0.4394 0.8490 0.2935
vn 0.4882 0.8490 0.2022
vn 0.5183 0.8490 0.1031
vn 0.8725 0.4886 0.0000
vn 0.8557 0.4886 0.1702
vn 0.8061 0.4886 0.3339
vn 0.7255 0.4886 0.4847
vn 0.6170 0.4885 0.6170
vn 0.4849 0.4884 0.7255
vn 0.3340 0.4883 0.8062
vn 0.1702 0.4886 0.8557
vn -0.0000 0.4886 0.8725
vn -0.1702 0.4886 0.8557
vn -0.3340 0.4882 0.8063
vn -0.4850 0.4884 0.7255
vn -0.6170 0.4885 0.6170
vn -0.7255 0.4886 0.4847
vn -0.8061 0.4886 0.3339
vn -0.8557 0.4886 0.1702
vn -0.8725 0.4886 -0.0000
vn -0.8557 0.4886 -0.1702
vn -0.8061 0.4886 -0.3339
vn -0.7255 0.4886 -0.4847
vn -0.6170 0.4885 -0.6170
vn -0.4849 0.4884 -0.7255
vn -0.3340 0.4883 -0.8062
vn -0.1702 0.4886 -0.8557
vn 0.0000 0.4886 -0.8725
vn 0.1702 0.4886 -0.8557
vn 0.3340 0.4882 -0.8063
vn 0.4850 0.4884 -0.7255
vn 0.6170 0.4885 -0.6170
vn 0.7255 0.4886 -0.4847
vn 0.8061 0.4886 -0.3339
vn 0.8557 0.4886 -0.1702
usemtl 1012
s 1
f 1/1/1 2/2/2 3/3/3
f 1/1/1 3/3/3 4/4/4
f 1/1/1 4/4/4 5/5/5
f 1/1/1 5/5/5 6/6/6
f 1/1/1 6/6/6 7/7/7
f 1/1/1 7/7/7 8/8/8
f 1/1/1 8/8/8 9/9/9
f 1/1/1 9/9/9 10/10/10
f 1/1/1 10/10/10 11/11/11
f 1/1/1 11/11/11 12/12/12
f 1/1/1 12/12/12 13/13/13
f 1/1/1 13/13/13 14/14/14
f 1/1/1 14/14/14 15/15/15
f 1/1/1 15/15/15 16/16/16
f 1/1/1 16/16/16 17/17/17
f 1/1/1 17/17/17 18/18/18
f 1/1/1 18/18/18 19/19/19
f 1/1/1 19/19/19 20/20/20
f 1/1/1 20/20/20 21/21/21
f 1/1/1 21/21/21 22/22/22
f 1/1/1 22/22/22 23/23/23
f 1/1/1 23/23/23 24/24/24
f 1/1/1 24/24/24 25/25/25
f 1/1/1 25/25/25 26/26/26
f 1/1/1 26/26/26 27/27/27
f 1/1/1 27/27/27 28/28/28
f 1/1/1 28/28/28 29/29/29
f 1/1/1 29/29/29 30/30/30
f 1/1/1 30/30/30 31/31/31
f 31/31/31 32/32/32 1/1/1
f 33/33/33 1/1/1 32/32/32
f 32/32/32 34/34/34 33/33/33
f 34/34/34 32/32/32 31/31/31
f 31/31/31 35/35/35 34/34/34
f 35/35/35 31/31/31 30/30/30
f 30/30/30 36/36/36 35/35/35
f 36/36/36 30/30/30 29/29/29
f 29/29/29 37/37/37 36/36/36
f 37/37/37 29/29/29 28/28/28
f 28/28/28 38/38/38 37/37/37
f 38/38/38 28/28/28 27/27/27
f 27/27/27 39/39/39 38/38/38
f 39/39/39 27/27/27 26/26/26
f 26/26/26 40/40/40 39/39/39
f 40/40/40 26/26/26 25/25/25
f 25/25/25 41/41/41 40/40/40
f 41/41/41 25/25/25 24/24/24
f 24/24/24 42/42/42 41/41/41
f 42/42/42 24/24/24 23/23/23
f 23/23/23 43/43/43 42/42/42
f 43/43/43 23/23/23 22/22/22
f 22/22/22 44/44/44 43/43/43
f 44/44/44 22/22/22 21/21/21
f 21/21/21 45/45/45 44/44/44
f 45/45/45 21/21/21 20/20/20
f 20/20/20 46/46/46 45/45/45
f 46/46/46 20/20/20 19/19/19
f 19/19/19 47/47/47 46/46/46
f 47/47/47 19/19/19 18/18/18
f 18/18/18 48/48/48 47/47/47
f 48/48/48 18/18/18 17/17/17
f 17/17/17 49/49/49 48/48/48
f 49/49/49 17/17/17 16/16/16
f 16/16/16 50/50/50 49/49/49
f 50/50/50 16/16/16 15/15/15
f 15/15/15 51/51/51 50/50/50
f 51/51/51 15/15/15 14/14/14
f 14/14/14 52/52/52 51/51/51
f 52/52/52 14/14/14 13/13/13
f 13/13/13 53/53/53 52/52/52
f 53/53/53 13/13/13 12/12/12
f 12/12/12 54/54/54 53/53/53
f 54/54/54 12/12/12 11/11/11
f 11/11/11 55/55/55 54/54/54
f 55/55/55 11/11/11 10/10/10
f 10/10/10 56/56/56 55/55/55
f 56/56/56 10/10/10 9/9/9
f 9/9/9 57/57/57 56/56/56
f 57/57/57 9/9/9 8/8/8
f 8/8/8 58/58/58 57/57/57
f 58/58/58 8/8/8 7/7/7
f 7/7/7 59/59/59 58/58/58
f 59/59/59 7/7/7 6/6/6
f 6/6/6 60/60/60 59/59/59
f 60/60/60 6/6/6 5/5/5
f 5/5/5 61/61/61 60/60/60
f 61/61/61 5/5/5 4/4/4
f 4/4/4 62/62/62 61/61/61
f 62/62/62 4/4/4 3/3/3
f 3/3/3 63/63/63 62/62/62
f 63/63/63 3/3/3 2/2/2
f 2/2/2 64/64/64 63/63/63
f 64/64/64 2/2/2 1/1/1
f 1/1/1 33/33/33 64/64/64
